<svg xmlns="http://www.w3.org/2000/svg" viewBox="0 0 48 48" width="48" height="48">
  <defs>
    <radialGradient id="enemyGrad" cx="35%" cy="35%" r="65%">
      <stop offset="0%" stop-color="#ff8a80" />
      <stop offset="70%" stop-color="#d50000" />
      <stop offset="100%" stop-color="#5d0000" />
    </radialGradient>
  </defs>
  <!-- Spikes -->
  <path d="M24 2 L28 10 L38 6 L34 16 L44 18 L36 24 L44 30 L34 32 L38 42 L28 38 L24 46 L20 38 L10 42 L14 32 L4 30 L12 24 L4 18 L14 16 L10 6 L20 10 Z" fill="#212121" />
  <!-- Core Body -->
  <circle cx="24" cy="24" r="16" fill="url(#enemyGrad)" stroke="#212121" stroke-width="2" />
  <!-- Angry Eyes -->
  <path d="M15 19 L21 21 L19 23 Z" fill="#ffffff" />
  <circle cx="18" cy="21" r="2" fill="#000000" />
  
  <path d="M33 19 L27 21 L29 23 Z" fill="#ffffff" />
  <circle cx="30" cy="21" r="2" fill="#000000" />
  
  <!-- Angry Brow -->
  <path d="M14 16 L22 20 M34 16 L26 20" stroke="#212121" stroke-width="2" stroke-linecap="round" />
  <!-- Mouth -->
  <path d="M19 29 Q24 26 29 29" fill="none" stroke="#212121" stroke-width="2" stroke-linecap="round" />
</svg>
